<svg xmlns="http://www.w3.org/2000/svg" viewBox="-24 -24 272 248" fill="none">
  <g opacity="0.5">
    <path
      d="M24 28 C20 92 36 170 68 174 C95 177 102 124 112 64 C122 124 129 177 156 174 C188 170 204 92 200 28"
      stroke="#fbbf24"
      stroke-opacity="0.2"
      stroke-width="40"
      stroke-linecap="square"
      stroke-linejoin="miter"
      stroke-miterlimit="5"
    />
    <path
      d="M24 28 C20 92 36 170 68 174 C95 177 102 124 112 64 C122 124 129 177 156 174 C188 170 204 92 200 28"
      stroke="#fbbf24"
      stroke-opacity="0.34"
      stroke-width="32"
      stroke-linecap="square"
      stroke-linejoin="miter"
      stroke-miterlimit="5"
    />
    <animate
      attributeName="opacity"
      dur="3.2s"
      repeatCount="indefinite"
      keyTimes="0;0.03;0.06;0.09;0.12;0.48;0.5;0.52;1"
      values="0.5;0.34;0.54;0.38;0.56;0.52;0.6;0.5;0.5"
    />
  </g>
  <g opacity="0.75">
    <path
      d="M24 28 C20 92 36 170 68 174 C95 177 102 124 112 64 C122 124 129 177 156 174 C188 170 204 92 200 28"
      stroke="#fbbf24"
      stroke-width="24.75"
      stroke-linecap="square"
      stroke-linejoin="miter"
      stroke-miterlimit="5"
    />
    <animate
      attributeName="opacity"
      dur="2.6s"
      repeatCount="indefinite"
      keyTimes="0;0.02;0.04;0.06;0.08;0.12;0.5;0.52;0.72;1"
      values="0.75;0.48;0.82;0.56;0.86;0.72;0.9;0.76;0.84;0.75"
    />
  </g>
  <path
    d="M24 28 C20 92 36 170 68 174 C95 177 102 124 112 68 C122 124 129 177 156 174 C188 170 204 92 200 28"
    stroke="#101828"
    stroke-opacity="0.32"
    stroke-width="22"
    stroke-linecap="square"
    stroke-linejoin="miter"
    shape-rendering="geometricPrecision"
  />
  <path
    d="M24 28 C20 92 36 170 68 174 C95 177 102 124 112 68 C122 124 129 177 156 174 C188 170 204 92 200 28"
    stroke="#ffffff"
    stroke-width="18"
    stroke-linecap="square"
    stroke-linejoin="miter"
    shape-rendering="geometricPrecision"
  />
</svg>
